<?xml version="1.0" encoding="utf-8"?>
<!-- Generator: Adobe Illustrator 24.3.0, SVG Export Plug-In . SVG Version: 6.00 Build 0)  -->
<svg version="1.1" id="Capa_1" xmlns="http://www.w3.org/2000/svg" xmlns:xlink="http://www.w3.org/1999/xlink" x="0px" y="0px"
	 viewBox="0 0 983.45 388.81" style="enable-background:new 0 0 983.45 388.81;" xml:space="preserve">
<style type="text/css">
	.st0{fill:#FFFFFF;}
	.st1{fill:#042049;}
	.st2{fill:#D12F2F;}
	.st3{fill:#939494;}
</style>
<g>
	<g>
		<path class="st0" d="M195.49,281.78c-6.86,8.73-15.37,15.77-23.96,22.66c-0.5,0.4-1.02,0.82-1.56,1.25
			c-0.55,0.44-1.1,0.88-1.66,1.32c-0.85,0.68-1.74,1.38-2.65,2.11c-1.82,1.45-3.65,2.88-5.47,4.33c-1.08,0.85-2.18,1.72-3.29,2.59
			c-1.86,1.47-3.77,2.96-5.68,4.46c-0.63,0.5-1.27,1-1.9,1.49c-11.44,8.97-22.78,17.8-27.14,21.19c-0.16,0.13-1.86,1.45-1.86,1.45
			c-14.37-17.28-26.76-33.31-26.76-33.31c2.32-1.22,26.87-14.25,43.5-24.09c0.32-0.18,0.63-0.37,0.94-0.56
			c0.32-0.18,0.63-0.37,0.93-0.55c1.22-0.73,2.39-1.44,3.49-2.12c0.54-0.33,1.07-0.66,1.6-1c0.26-0.16,0.51-0.32,0.76-0.48
			c4.18-2.67,8.5-5.28,11.31-9.61c2.61-4.02,2.32-7.27-1.07-10.63c-2.63-2.61-5.8-4.45-9.1-6.07c-9.53-4.69-19.11-9.3-28.62-14.03
			c-5.91-2.95-11.63-6.22-16.13-11.21c-6.71-7.45-5.75-16.45,2.34-22.38c3.95-2.89,8.45-4.62,13.05-6.03
			c12.65-3.89,25.36-7.62,38.02-11.48c2.93-0.9,5.82-2.02,8.32-3.84c3.73-2.71,3.86-5.19,0.41-8.12c-1.67-1.42-3.54-2.6-5.34-3.87
			c-3.15-2.21-6.9-4.93-8.92-8.25c-1.42-2.35-2.11-3.7-0.5-5.75c0.77-0.99,1.77-1.28,2.85-1.26c1.27-0.04,2.68,0.41,3.96,0.69
			c0.28,0.06,0.54,0.21,0.81,0.32c7.79,3.25,15.65,6.33,23.34,9.79c5.88,2.63,11.43,6.15,11.6,13.46
			c0.16,7.09-5.15,10.71-10.56,13.96c-4.92,2.94-10.27,4.85-15.57,6.93c-8.65,3.4-17.76,5.7-25.85,10.43
			c-5.41,3.17-5.41,7.27-0.26,10.87c4.98,3.48,10.79,4.98,16.38,6.98c13.15,4.68,27,7.5,39.06,15.09c5.49,3.46,8.19,8.34,8.7,14.63
			C203.62,270.61,199.78,276.31,195.49,281.78z"/>
		<path class="st1" d="M295.21,122.35c-10.47-50.52-39.6-86.56-87.95-105.86c-27.96-11.16-56.98-12.76-86.21-5.98
			c-33.94,7.86-62.17,25.11-83.18,53.32c-15.04,20.19-24.46,42.86-27.02,67.85c-2.98,29.1,3.01,56.77,16.22,82.9
			c9.93,19.66,22.19,37.85,35.08,55.64c8.8,12.14,20.46,27.02,27.4,35.93c0.79,1.01,2.77,3.56,3.66,4.7c0.1,0.13,0.2,0.26,0.3,0.4
			c0.02,0.03,0.04,0.05,0.05,0.07c2.32-1.22,26.87-14.25,43.5-24.09c0.32-0.18,0.63-0.37,0.94-0.56c0.32-0.18,0.63-0.37,0.93-0.55
			c1.22-0.73,2.39-1.44,3.49-2.12c0.54-0.33,1.07-0.66,1.6-1c0.26-0.16,0.51-0.32,0.76-0.48c4.18-2.67,8.5-5.28,11.31-9.61
			c2.61-4.02,2.32-7.27-1.07-10.63c-2.63-2.61-5.8-4.45-9.1-6.07c-9.53-4.69-19.11-9.3-28.62-14.03
			c-5.91-2.95-11.63-6.22-16.13-11.21c-6.71-7.45-5.75-16.45,2.34-22.38c3.95-2.89,8.45-4.62,13.05-6.03
			c12.65-3.89,25.36-7.62,38.02-11.48c2.93-0.9,5.82-2.02,8.32-3.84c3.73-2.71,3.86-5.19,0.41-8.12c-1.67-1.42-3.54-2.6-5.34-3.87
			c-3.15-2.21-6.9-4.93-8.92-8.25c-1.42-2.35-2.11-3.7-0.5-5.75c0.77-0.99,1.77-1.28,2.85-1.26c1.27-0.04,2.68,0.41,3.96,0.69
			c0.28,0.06,0.54,0.21,0.81,0.32c7.79,3.25,15.65,6.33,23.34,9.79c5.88,2.63,11.43,6.15,11.6,13.46
			c0.16,7.09-5.15,10.71-10.56,13.96c-4.92,2.94-10.27,4.85-15.57,6.93c-8.65,3.4-17.76,5.7-25.85,10.43
			c-5.41,3.17-5.41,7.27-0.26,10.87c4.98,3.48,10.79,4.98,16.38,6.98c13.15,4.68,27,7.5,39.06,15.09c5.49,3.46,8.19,8.34,8.7,14.63
			c0.61,7.47-3.23,13.17-7.52,18.64c-6.86,8.73-15.37,15.77-23.96,22.66c-0.5,0.4-1.02,0.82-1.56,1.25
			c-0.55,0.44-1.1,0.88-1.66,1.32c-0.85,0.68-1.74,1.38-2.65,2.11c-1.82,1.45-3.65,2.88-5.47,4.33c-1.08,0.85-2.18,1.72-3.29,2.59
			c-1.86,1.47-3.77,2.96-5.68,4.46c-0.63,0.5-1.27,1-1.9,1.49c-11.44,8.97-22.78,17.8-27.14,21.19c-0.16,0.13-1.86,1.45-1.86,1.45
			s0.13,0.14,0.32,0.36c0.33,0.37,0.85,0.95,1.31,1.46c0.43,0.49,0.8,0.91,0.88,0.99c10.48,11.55,20.88,23.17,31.43,34.89
			c0.53-0.55,1.14-1.16,1.71-1.81c29.06-33.27,57.99-66.67,84.25-102.23c18.77-25.41,36.76-51.28,48.05-81.2
			C297.47,172.72,300.43,147.56,295.21,122.35z M139.02,50.03c4.35-1.37,8.8-2.17,12.89-1.89c24.52-0.92,41.81,21.74,41.27,41.24
			c-0.15,5.47-1.46,10.71-3.91,15.61c-8.86,17.69-20.76,33.23-33.95,47.87c-1.83,2.02-3.36,2.35-5.43,0.43
			c-16.64-15.42-30.4-33.02-38.26-54.42C103.75,77.4,118.61,56.42,139.02,50.03z"/>
		<path class="st2" d="M151.91,48.14c-4.09-0.28-8.54,0.52-12.89,1.89c-20.41,6.39-35.27,27.37-27.39,48.84
			c7.86,21.4,21.62,39,38.26,54.42c2.07,1.92,3.6,1.59,5.43-0.43c13.19-14.64,25.09-30.18,33.95-47.87
			c2.45-4.9,3.76-10.14,3.91-15.61C193.72,69.88,176.43,47.22,151.91,48.14z M151.01,106.59c-9.84-0.23-17.05-7.74-16.83-17.54
			c0.21-9.26,8.14-16.99,17.21-16.79c10.1,0.23,17.63,8.12,17.36,18.18C168.49,99.8,160.78,106.82,151.01,106.59z"/>
		<path class="st0" d="M151.01,106.59c-9.85-0.23-17.05-7.74-16.83-17.54c0.21-9.26,8.14-16.99,17.21-16.79
			c10.1,0.23,17.63,8.12,17.36,18.18C168.49,99.8,160.78,106.82,151.01,106.59z"/>
	</g>
	<g>
		<g>
			<path class="st1" d="M426.78,107.32c10.84,0,21.39,0,32.04,0c0,38.71,0,77.34,0,116.12c-9.8,0-19.58,0-29.51,0
				c-0.64-5.78-1.29-11.54-1.98-17.78c-0.68,0.8-1.13,1.32-1.56,1.85c-7.54,9.26-16.94,15.53-28.82,17.68
				c-6.81,1.23-13.63,1.51-20.34-0.61c-8.3-2.63-13.23-8.58-15.97-16.58c-1.9-5.56-2.68-11.34-2.7-17.17
				c-0.07-27.35-0.03-54.7-0.03-82.05c0-0.45,0-0.89,0-1.44c10.74,0,21.34,0,32.22,0c0,0.64,0,1.29,0,1.95
				c0,24.95-0.03,49.9,0.04,74.85c0.01,2.82,0.31,5.72,1.01,8.45c1.34,5.29,5.22,8.26,10.67,8.51c9.39,0.44,17.63-2.1,23.77-9.63
				c0.68-0.83,1.11-2.13,1.11-3.22c0.06-26.26,0.05-52.53,0.05-78.79C426.78,108.79,426.78,108.11,426.78,107.32z"/>
			<path class="st1" d="M657.85,153.7c0-6.06,0.3-11.89-0.09-17.67c-0.36-5.43-4.77-9.5-11.2-10.64
				c-13.91-2.47-27.24-0.37-40.01,5.57c-0.4,0.19-0.8,0.39-1.38,0.67c-0.73-4.56-2.25-15.14-2.54-15.93
				c-0.74-2.03,0.29-2.69,2.01-3.35c14.57-5.66,29.67-8.12,45.26-7.43c8.29,0.36,16.32,1.99,23.49,6.48
				c8.4,5.26,13.03,13.12,14.87,22.63c0.83,4.29,1.3,8.71,1.32,13.07c0.12,24.77,0.06,49.55,0.06,74.32c0,0.62,0,1.25,0,2.03
				c-9.65,0-19.21,0-29,0c-0.64-4.75-1.28-9.57-1.92-14.36c-0.24,0-0.41-0.04-0.44,0.01c-4.91,7.81-12.33,12.03-20.95,14.32
				c-10.03,2.65-20.06,2.18-29.82-1.24c-9.28-3.25-15.42-9.83-18.41-19.14c-3.22-10.04-3.75-20.31-1.05-30.53
				c2.79-10.58,9.46-18.33,19.2-23.1c12.92-6.33,26.41-7.29,40.01-2.34c3.3,1.2,6.15,3.61,9.2,5.49
				C656.93,152.84,657.32,153.26,657.85,153.7z M618.87,182.47c0.23,2.58,0.32,4.63,0.61,6.66c1.13,7.83,5.65,13.06,13.14,14.54
				c3.25,0.64,6.72,0.76,10.02,0.42c7.24-0.74,12.33-4.56,14.35-11.76c2.02-7.21,1.84-14.46-0.7-21.52
				c-2-5.57-6.04-9.05-11.88-10.18c-2.17-0.42-4.42-0.65-6.62-0.6c-9.61,0.19-15.69,5.05-17.82,14.32
				C619.32,177.17,619.18,180.1,618.87,182.47z"/>
			<path class="st1" d="M887.79,131.65c-0.67-4.15-1.3-8.08-1.93-12c-0.25-1.58-0.36-3.18-0.75-4.73c-0.32-1.29,0.09-1.77,1.26-2.24
				c8.15-3.23,16.55-5.53,25.22-6.75c9.08-1.27,18.2-1.73,27.31-0.41c9.2,1.34,17.58,4.48,23.95,11.65c5.07,5.7,7.6,12.55,8.6,19.97
				c0.52,3.89,0.73,7.84,0.74,11.77c0.07,24.27,0.03,48.53,0.03,72.8c0,0.56,0,1.11,0,1.75c-0.62,0.05-1.06,0.11-1.5,0.11
				c-8.63,0.01-17.26-0.01-25.88,0.03c-1.16,0.01-1.69-0.19-1.83-1.53c-0.47-4.4-1.13-8.78-1.72-13.24
				c-1.69,1.99-3.14,4.04-4.92,5.74c-6.13,5.84-13.67,8.82-21.93,9.93c-8.13,1.1-16.19,0.52-23.99-2.22
				c-9.74-3.43-16.03-10.26-19.01-20.06c-2.81-9.23-3.31-18.65-1.23-28.07c2.32-10.49,8.33-18.52,17.68-23.69
				c13.39-7.42,27.53-8.52,41.95-3.41c3.3,1.17,6.16,3.61,9.2,5.49c0.47,0.29,0.86,0.7,1.61,1.31c0-0.93,0.01-1.52,0-2.11
				c-0.07-5.19,0.1-10.4-0.27-15.57c-0.35-4.94-3.51-8.04-7.96-9.8c-5.27-2.08-10.8-2.19-16.37-1.93
				C906.26,124.92,896.84,126.94,887.79,131.65z M941.16,183.8c-0.46-3.7-0.61-6.57-1.19-9.34c-1.4-6.73-4.96-11.77-11.93-13.57
				c-2.51-0.64-5.19-0.9-7.78-0.84c-8.81,0.19-14.65,4.36-17.09,12.14c-2,6.39-2.19,12.91-0.53,19.4
				c1.54,6.04,5.25,10.17,11.36,11.84c4.7,1.28,9.46,1.33,14.21,0.12c5.31-1.36,9.13-4.55,10.82-9.74
				C940.16,190.33,940.58,186.62,941.16,183.8z"/>
			<path class="st1" d="M570.04,131.75c-4.82-3.62-9.98-5.65-15.56-6.58c-6.77-1.13-13.53-1.33-20.15,0.87
				c-8.76,2.91-13.83,9.36-16.63,17.8c-3.02,9.08-3.37,18.46-2.83,27.92c0.4,7.11,1.52,14.07,4.84,20.48
				c4.22,8.13,11.07,12.37,20.13,12.56c10.48,0.22,20.46-2.3,29.96-6.68c0.26-0.12,0.51-0.24,0.92-0.44
				c0.82,4.11,1.62,8.11,2.41,12.12c0.39,1.96,0.64,3.95,1.15,5.87c0.29,1.09-0.02,1.64-0.94,1.99c-4.93,1.91-9.81,4-14.83,5.64
				c-5.37,1.76-10.94,2.97-16.62,2.96c-15.24,0-29.98-2.04-42.66-11.52c-8.37-6.26-13.59-14.72-16.42-24.62
				c-4.13-14.47-4.67-29.2-1.22-43.84c5.16-21.88,19.07-35.36,40.97-40.24c12.93-2.88,25.99-2.8,38.81,0.88
				c3.63,1.04,6.99,2.99,10.47,4.54c0.8,0.36,1.17,0.91,1.01,1.89C571.9,119.36,571,125.39,570.04,131.75z"/>
			<path class="st1" d="M846.45,128.86c-3.98-1.24-7.81-2.78-11.78-3.61c-8.08-1.68-16.29-2.52-24.44-0.51
				c-2.6,0.64-5.22,1.8-7.43,3.3c-5.05,3.44-5.27,10.37-0.73,14.49c2.47,2.25,5.47,3.42,8.59,4.43c7.91,2.57,15.88,4.99,23.64,7.95
				c5.97,2.27,11.24,5.86,15.12,11.13c4.2,5.71,5.96,12.23,6.3,19.22c0.36,7.59-0.51,14.94-4.35,21.67
				c-4.45,7.79-11.44,12.39-19.65,15.38c-7.04,2.57-14.37,3.58-21.82,3.85c-9.8,0.36-19.51-0.24-28.93-3.22
				c-2.76-0.88-5.41-2.1-8.07-3.28c-0.44-0.2-0.96-1.02-0.89-1.45c1.11-6.04,2.31-12.07,3.5-18.12c3.52,1.47,6.86,3.08,10.34,4.29
				c10.24,3.55,20.6,4.42,31.03,0.8c1.39-0.48,2.76-1.12,4.02-1.87c7.17-4.28,8.25-13.1,2.35-19.06c-2.63-2.66-5.89-4.25-9.4-5.42
				c-6.16-2.05-12.4-3.91-18.45-6.27c-6.72-2.62-12.47-6.68-16.25-13.07c-3.75-6.34-4.82-13.32-4.87-20.55
				c-0.04-5.93,1.01-11.59,4.11-16.73c4.28-7.1,10.81-11.29,18.45-13.96c8.33-2.91,16.96-3.41,25.68-2.95
				c7.8,0.41,15.4,1.81,22.66,4.78c4,1.63,3.99,1.62,3.33,5.9c-0.62,4-1.2,8.01-1.81,12.01
				C846.64,128.39,846.48,128.75,846.45,128.86z"/>
			<path class="st1" d="M719.53,70.88c10.79,0,21.4,0,32.11,0c0,50.84,0,101.64,0,152.72c-0.51,0-1.05,0-1.6,0
				c-9.6,0-19.2-0.03-28.8,0.03c-1.43,0.01-1.83-0.4-1.83-1.82c0.03-49.67,0.02-99.35,0.03-149.02
				C719.45,72.22,719.49,71.66,719.53,70.88z"/>
		</g>
		<g>
			<path class="st3" d="M393.21,259.12c4.49,2.38,7.25,6.52,8.27,12.43h-6.12c-0.37-1.64-0.94-3.06-1.71-4.25
				c-0.77-1.19-1.72-2.17-2.86-2.94c-1.14-0.77-2.44-1.34-3.89-1.71c-1.46-0.37-3.07-0.55-4.83-0.55c-4.16,0-7.68,1.57-10.55,4.71
				c-2.83,3.14-4.25,7.79-4.25,13.97c0,5.35,1.17,9.71,3.51,13.07c2.38,3.36,6.21,5.04,11.5,5.04c4.06,0,7.42-1.18,10.09-3.54
				c1.31-1.17,2.31-2.71,3-4.63c0.69-1.92,1.05-4.18,1.09-6.78h-14.12v-5.14h19.87v24.21h-4l-1.45-5.75c-1,1.11-1.97,2.04-2.89,2.81
				c-0.92,0.77-1.78,1.39-2.58,1.86c-2.69,1.52-6.1,2.28-10.24,2.28c-5.41,0-10.02-1.73-13.81-5.2c-4.2-4.33-6.31-10.29-6.31-17.9
				c0-3.65,0.52-6.98,1.55-9.98c1.04-3,2.49-5.58,4.35-7.72c1.87-2.14,4.11-3.8,6.72-4.98c2.62-1.18,5.5-1.77,8.66-1.77
				C386.46,256.65,390.12,257.47,393.21,259.12z"/>
			<path class="st3" d="M412.29,257.82h32.95v5.6h-26.95v13.63h24.92v5.29h-24.92v15.23h27.41v5.45h-33.41V257.82z"/>
			<path class="st3" d="M457.78,288.4c0.14,2.5,0.74,4.57,1.78,6.21c1.05,1.42,2.47,2.52,4.26,3.31c1.79,0.79,3.94,1.18,6.44,1.18
				c1.8,0,3.42-0.18,4.86-0.54c1.44-0.36,2.66-0.88,3.68-1.55c1.02-0.68,1.79-1.49,2.34-2.45c0.54-0.95,0.82-2.02,0.82-3.21
				s-0.2-2.23-0.6-3.11c-0.4-0.88-0.96-1.59-1.68-2.12c-0.78-0.49-1.79-0.97-3.03-1.43c-1.24-0.46-2.66-0.88-4.26-1.25
				c-1.03-0.23-2.04-0.46-3.06-0.69c-1.01-0.24-2.04-0.47-3.06-0.69c-1.99-0.45-3.7-0.93-5.14-1.43c-1.44-0.5-2.55-1.02-3.35-1.55
				c-2.87-1.91-4.31-4.74-4.31-8.49c0-4.04,1.4-7.37,4.21-10c2.75-2.6,6.73-3.91,11.94-3.91c2.32,0,4.51,0.28,6.58,0.83
				c2.07,0.55,3.88,1.42,5.43,2.6c1.55,1.18,2.77,2.68,3.68,4.49c0.9,1.82,1.35,3.98,1.35,6.51h-5.78
				c-0.31-2.34-0.96-4.18-1.97-5.54c-0.96-1.13-2.24-2-3.83-2.61c-1.59-0.62-3.47-0.92-5.65-0.92c-3.59,0-6.17,0.76-7.75,2.28
				s-2.37,3.27-2.37,5.26c0,1.04,0.24,1.98,0.72,2.81c0.48,0.83,1.15,1.49,2.01,1.98c0.59,0.35,1.58,0.72,2.97,1.11
				c1.38,0.39,3.13,0.84,5.25,1.35c0.21,0.04,0.61,0.13,1.21,0.28s1.26,0.29,1.95,0.45c0.7,0.15,1.35,0.3,1.95,0.45
				c0.6,0.14,1.01,0.24,1.21,0.28c3.1,0.72,5.46,1.67,7.08,2.86c2.87,2.13,4.31,5.21,4.31,9.23c0,5-1.83,8.58-5.48,10.74
				c-3.59,2.15-7.81,3.23-12.67,3.23c-2.85,0-5.38-0.37-7.6-1.12c-2.21-0.75-4.08-1.82-5.6-3.2c-1.52-1.38-2.68-3.06-3.48-5.03
				s-1.2-4.16-1.2-6.58H457.78z"/>
			<path class="st3" d="M528.63,257.82v5.45h-15.2v39.74h-6.28v-39.74h-15.19v-5.45H528.63z"/>
			<path class="st3" d="M535.58,257.82h6.24v45.19h-6.24V257.82z"/>
			<path class="st3" d="M588.95,264.28c1.5,2.01,2.62,4.28,3.37,6.81s1.12,5.38,1.12,8.54c0,6.75-1.71,12.36-5.14,16.83
				c-4.02,5.25-9.75,7.88-17.2,7.88c-6.95,0-12.42-2.3-16.4-6.89c-3.55-4.45-5.32-10.05-5.32-16.79c0-3.02,0.39-5.85,1.18-8.49
				c0.79-2.65,1.91-5.04,3.37-7.2c0.96-1.25,2.07-2.39,3.31-3.41s2.59-1.91,4.06-2.65s3.03-1.31,4.69-1.71
				c1.66-0.4,3.4-0.6,5.23-0.6C579.21,256.59,585.12,259.16,588.95,264.28z M587.11,279.72c0-2.62-0.36-5.01-1.08-7.17
				s-1.74-4.01-3.08-5.57s-2.96-2.76-4.88-3.62c-1.92-0.85-4.08-1.28-6.48-1.28c-2.28,0-4.38,0.4-6.32,1.2
				c-1.94,0.8-3.61,1.99-5.01,3.58c-1.4,1.59-2.5,3.56-3.29,5.92c-0.79,2.36-1.18,5.11-1.18,8.24c0,4.98,1.26,9.19,3.78,12.61
				c2.52,3.42,6.61,5.14,12.27,5.14c5.37,0,9.25-1.93,11.63-5.78c1.21-1.97,2.12-4.04,2.72-6.23
				C586.8,284.6,587.11,282.25,587.11,279.72z M579.72,244.16l-8.27,8.92h-4.34l5.66-8.92H579.72z"/>
			<path class="st3" d="M600.73,257.82h7.26l22.73,36.45v-36.45h5.88v45.19h-6.92l-23.04-36.42v36.42h-5.91V257.82z"/>
			<path class="st3" d="M663.43,257.82h18.3c2.95,0,5.61,0.52,7.97,1.57s4.36,2.53,6,4.45s2.9,4.22,3.77,6.92
				c0.87,2.7,1.31,5.69,1.31,8.97c0,2.36-0.24,4.64-0.71,6.83s-1.14,4.24-2,6.15c-1.62,3.38-3.79,5.95-6.52,7.69
				c-2.73,1.74-6.02,2.62-9.87,2.62h-18.24V257.82z M680.5,297.72c2.09,0,3.79-0.21,5.11-0.65c2.38-0.82,4.32-2.36,5.81-4.61
				c0.47-0.7,0.89-1.51,1.26-2.43s0.69-1.91,0.95-2.95s0.47-2.11,0.62-3.18c0.14-1.08,0.22-2.12,0.22-3.12
				c0-2.77-0.27-5.25-0.8-7.43c-0.53-2.18-1.37-4.03-2.51-5.54c-1.14-1.51-2.59-2.66-4.35-3.46c-1.76-0.8-3.89-1.2-6.37-1.2h-10.8
				v34.58H680.5z"/>
			<path class="st3" d="M709.23,257.82h32.95v5.6h-26.95v13.63h24.92v5.29h-24.92v15.23h27.41v5.45h-33.41V257.82z"/>
			<path class="st3" d="M768.32,257.82h20.92c5,0,8.74,1.05,11.2,3.14s3.69,5.11,3.69,9.04c0,2.69-0.55,4.9-1.65,6.63
				c-1.1,1.73-2.65,3.12-4.66,4.17c0.86,0.35,1.62,0.74,2.28,1.18c0.66,0.44,1.21,0.98,1.66,1.63c0.45,0.65,0.8,1.43,1.05,2.34
				c0.25,0.91,0.39,2.04,0.43,3.37l0.22,6.03c0.04,1.07,0.11,1.97,0.22,2.72c0.1,0.75,0.25,1.38,0.45,1.91
				c0.2,0.52,0.44,0.94,0.72,1.25s0.63,0.54,1.02,0.71v1.08h-7.54c-0.12-0.27-0.23-0.51-0.31-0.74c-0.08-0.23-0.15-0.52-0.22-0.88
				c-0.06-0.36-0.11-0.81-0.15-1.35c-0.04-0.54-0.08-1.26-0.12-2.14l-0.37-7.51c-0.1-1.44-0.42-2.66-0.95-3.68
				c-0.53-1.02-1.3-1.76-2.31-2.23c-1.17-0.55-3-0.83-5.51-0.83h-13.87v19.35h-6.18V257.82z M788.59,278.49
				c1.39,0,2.67-0.13,3.81-0.38s2.13-0.69,2.94-1.31c0.81-0.62,1.43-1.43,1.88-2.45c0.44-1.02,0.66-2.27,0.66-3.77
				c0-2.5-0.69-4.37-2.06-5.6s-3.52-1.85-6.43-1.85h-14.89v15.35H788.59z"/>
			<path class="st3" d="M819.79,257.82v27.93c0,4.18,0.94,7.4,2.83,9.66s4.61,3.38,8.18,3.38c2.56,0,4.73-0.47,6.49-1.4
				c1.76-0.93,3.12-2.23,4.06-3.89c0.47-0.94,0.84-2.07,1.09-3.38c0.26-1.31,0.38-2.77,0.38-4.37v-27.93h6.28v25.38
				c0,5.5-0.75,9.76-2.25,12.8c-1.39,2.54-3.42,4.55-6.06,6.01c-2.65,1.47-5.81,2.2-9.51,2.2s-6.86-0.73-9.49-2.2
				s-4.65-3.47-6.04-6.01c-1.5-3.04-2.25-7.3-2.25-12.8v-25.38H819.79z"/>
			<path class="st3" d="M891.46,257.82v5.45h-15.2v39.74h-6.28v-39.74h-15.2v-5.45H891.46z"/>
			<path class="st3" d="M910.16,257.82h6.98l16.37,45.19h-6.77l-4.55-13.5h-17.81c-0.31,0.86-0.68,1.89-1.11,3.08
				s-0.87,2.41-1.32,3.68c-0.45,1.26-0.89,2.49-1.32,3.68s-0.8,2.21-1.11,3.08h-6.34L910.16,257.82z M920.22,284.46
				c-1.11-3.26-2.25-6.57-3.42-9.92c-1.17-3.35-2.31-6.65-3.42-9.89c-1.23,3.3-2.44,6.6-3.63,9.89c-1.19,3.29-2.4,6.6-3.63,9.92
				H920.22z"/>
			<path class="st3" d="M943.14,288.4c0.14,2.5,0.74,4.57,1.78,6.21c1.05,1.42,2.47,2.52,4.26,3.31c1.79,0.79,3.94,1.18,6.44,1.18
				c1.8,0,3.42-0.18,4.86-0.54c1.44-0.36,2.66-0.88,3.68-1.55c1.02-0.68,1.79-1.49,2.34-2.45c0.54-0.95,0.82-2.02,0.82-3.21
				s-0.2-2.23-0.6-3.11c-0.4-0.88-0.96-1.59-1.68-2.12c-0.78-0.49-1.79-0.97-3.03-1.43c-1.24-0.46-2.66-0.88-4.26-1.25
				c-1.03-0.23-2.04-0.46-3.06-0.69c-1.01-0.24-2.04-0.47-3.06-0.69c-1.99-0.45-3.7-0.93-5.14-1.43c-1.44-0.5-2.55-1.02-3.35-1.55
				c-2.87-1.91-4.31-4.74-4.31-8.49c0-4.04,1.4-7.37,4.21-10c2.75-2.6,6.73-3.91,11.94-3.91c2.32,0,4.51,0.28,6.58,0.83
				c2.07,0.55,3.88,1.42,5.43,2.6c1.55,1.18,2.77,2.68,3.68,4.49c0.9,1.82,1.35,3.98,1.35,6.51h-5.78
				c-0.31-2.34-0.96-4.18-1.97-5.54c-0.96-1.13-2.24-2-3.83-2.61c-1.59-0.62-3.47-0.92-5.65-0.92c-3.59,0-6.17,0.76-7.75,2.28
				s-2.37,3.27-2.37,5.26c0,1.04,0.24,1.98,0.72,2.81c0.48,0.83,1.15,1.49,2.01,1.98c0.59,0.35,1.58,0.72,2.97,1.11
				c1.38,0.39,3.13,0.84,5.25,1.35c0.21,0.04,0.61,0.13,1.21,0.28s1.26,0.29,1.95,0.45c0.7,0.15,1.35,0.3,1.95,0.45
				c0.6,0.14,1.01,0.24,1.21,0.28c3.1,0.72,5.46,1.67,7.08,2.86c2.87,2.13,4.31,5.21,4.31,9.23c0,5-1.83,8.58-5.48,10.74
				c-3.59,2.15-7.81,3.23-12.67,3.23c-2.85,0-5.38-0.37-7.6-1.12c-2.21-0.75-4.08-1.82-5.6-3.2c-1.52-1.38-2.68-3.06-3.48-5.03
				s-1.2-4.16-1.2-6.58H943.14z"/>
		</g>
	</g>
</g>
</svg>
